<?xml version="1.0" standalone="no"?>
<!DOCTYPE svg PUBLIC "-//W3C//DTD SVG 20010904//EN"
 "http://www.w3.org/TR/2001/REC-SVG-20010904/DTD/svg10.dtd">
<svg version="1.0" xmlns="http://www.w3.org/2000/svg"
 width="276.000000pt" height="276.000000pt" viewBox="0 0 276.000000 276.000000"
 preserveAspectRatio="xMidYMid meet">

<g transform="translate(0.000000,276.000000) scale(0.100000,-0.100000)"
fill="#000000" stroke="none">
<path d="M0 1380 l0 -1380 1380 0 1380 0 0 1380 0 1380 -1380 0 -1380 0 0
-1380z m1609 1315 c424 -74 783 -340 974 -721 172 -343 188 -756 41 -1112
-170 -415 -544 -720 -992 -809 -120 -24 -375 -24 -495 0 -545 109 -953 513
-1068 1059 -28 132 -31 360 -6 494 100 550 538 989 1082 1087 108 20 358 21
464 2z"/>
<path d="M1380 2625 l0 -65 50 0 c38 0 50 4 50 15 0 10 -10 15 -30 15 -16 0
-30 5 -30 10 0 6 11 10 25 10 16 0 25 6 25 15 0 9 -9 15 -25 15 -14 0 -25 5
-25 10 0 6 14 10 30 10 39 0 39 16 -1 24 -68 13 -69 12 -69 -59z"/>
<path d="M1207 2673 c-15 -4 -16 -12 -11 -61 4 -31 8 -59 10 -60 7 -9 86 11
99 25 19 19 19 53 -1 81 -15 22 -50 27 -97 15z m71 -54 c2 -18 -3 -29 -14 -33
-20 -8 -34 9 -34 42 0 35 44 27 48 -9z"/>
<path d="M1607 2608 c-17 -68 -15 -71 57 -72 39 -1 41 1 42 29 1 17 4 37 8 46
9 20 -8 34 -56 47 l-36 10 -15 -60z m73 12 c0 -5 -7 -10 -15 -10 -8 0 -15 5
-15 10 0 6 7 10 15 10 8 0 15 -4 15 -10z m-10 -51 c0 -5 -9 -9 -20 -9 -13 0
-18 5 -14 14 6 15 34 11 34 -5z"/>
<path d="M968 2618 c-33 -11 -33 -10 -10 -69 19 -52 21 -53 61 -44 43 9 64 37
56 74 -10 48 -48 61 -107 39z m68 -42 c12 -50 -27 -65 -44 -17 -11 33 -7 41
19 41 11 0 21 -10 25 -24z"/>
<path d="M1776 2580 c-21 -53 -20 -66 6 -84 52 -36 106 -7 111 59 3 44 -21 41
-39 -4 -11 -28 -22 -41 -35 -41 -23 0 -24 16 -4 63 13 31 13 36 -1 41 -9 3
-17 6 -19 6 -1 0 -10 -18 -19 -40z"/>
<path d="M813 2553 c-9 -3 -13 -28 -13 -74 0 -67 1 -69 20 -59 11 6 20 19 20
30 0 27 34 44 50 25 9 -11 17 -12 31 -4 18 9 16 13 -28 50 -47 39 -56 42 -80
32z m37 -44 c0 -5 -4 -9 -10 -9 -5 0 -10 7 -10 16 0 8 5 12 10 9 6 -3 10 -10
10 -16z"/>
<path d="M1197 2535 c-244 -41 -457 -153 -638 -334 -427 -426 -464 -1083 -87
-1558 254 -320 675 -488 1076 -429 251 37 460 138 641 311 382 363 480 912
246 1375 -231 458 -739 719 -1238 635z m133 -61 c14 -35 12 -54 -4 -54 -8 0
-28 -16 -45 -35 -33 -38 -42 -96 -21 -135 7 -13 5 -35 -8 -76 -16 -52 -21 -59
-51 -67 -51 -13 -64 -4 -56 39 3 20 17 61 31 92 28 63 32 117 8 126 -31 12
-61 5 -84 -19 -18 -20 -26 -22 -42 -14 -29 15 -74 -6 -88 -42 -10 -22 -19 -29
-40 -29 -33 0 -85 -40 -93 -72 -4 -16 -14 -23 -32 -24 -47 -3 -95 -68 -95
-129 0 -16 -6 -25 -15 -25 -32 0 -65 -47 -65 -91 0 -32 -7 -49 -30 -76 -37
-42 -43 -95 -15 -138 11 -17 10 -24 -1 -40 -28 -38 -16 -113 27 -160 14 -16
22 -63 39 -245 14 -139 19 -249 16 -289 -7 -66 -38 -152 -62 -172 -8 -6 -14
-15 -14 -20 0 -21 42 -6 98 35 48 36 66 58 94 113 l33 68 0 245 c0 222 2 249
18 274 11 15 22 24 26 20 34 -42 81 -124 81 -141 0 -16 -8 -22 -34 -27 -43 -8
-48 -22 -40 -111 5 -56 3 -78 -10 -103 l-17 -32 31 0 c24 0 30 -4 30 -21 0
-11 -38 -147 -85 -301 -47 -155 -85 -285 -85 -291 0 -42 42 59 145 347 120
335 120 336 132 299 7 -20 18 -41 23 -48 7 -9 7 -21 0 -39 -5 -15 -10 -41 -10
-57 0 -24 -6 -32 -29 -40 -44 -16 -80 -84 -65 -123 9 -22 24 -20 24 3 0 30 11
51 26 51 19 0 18 -19 -3 -42 -14 -16 -15 -21 -2 -45 8 -14 38 -41 67 -60 28
-18 52 -37 52 -42 0 -5 -32 -80 -70 -166 -39 -87 -68 -160 -65 -163 3 -3 87
50 187 117 l181 124 36 -19 c19 -11 98 -61 175 -111 192 -127 205 -125 137 27
-45 100 -71 190 -71 248 0 40 1 42 102 112 67 46 104 66 107 58 66 -203 161
-463 170 -466 20 -7 12 29 -59 272 -38 132 -69 240 -67 241 17 12 573 399 576
401 6 5 -60 104 -327 498 -141 209 -262 381 -268 383 -5 2 -42 -64 -81 -147
-68 -146 -71 -149 -88 -130 -9 10 -38 27 -64 36 -25 10 -51 22 -57 28 -7 6
-24 47 -38 92 -24 72 -25 86 -15 125 15 56 -6 111 -51 137 -33 19 -36 29 -18
67 9 21 18 25 54 25 103 0 288 -52 417 -116 282 -142 498 -409 584 -719 25
-93 27 -113 27 -290 0 -163 -3 -201 -22 -268 -60 -219 -148 -373 -302 -527
-211 -210 -449 -315 -741 -327 -270 -11 -482 49 -698 197 -329 225 -514 620
-480 1024 42 493 403 902 889 1006 47 10 104 19 128 19 37 1 44 -2 52 -25z
m94 -126 c33 -47 4 -108 -51 -108 -55 0 -85 70 -46 112 23 26 78 24 97 -4z
m-244 -20 c-1 -32 -49 -120 -51 -93 0 11 -9 -4 -18 -34 -23 -69 -35 -51 -25
36 5 50 12 72 30 90 31 30 64 31 64 1z m-122 -58 c2 -20 -1 -47 -7 -60 -10
-24 -10 -25 -10 -2 -2 49 -20 18 -27 -45 l-7 -68 -13 35 c-20 56 -17 123 7
154 29 37 53 30 57 -14z m-109 -81 c7 -23 15 -47 17 -53 3 -7 -2 -13 -10 -13
-9 0 -18 9 -22 19 -3 11 -11 17 -17 15 -13 -5 -13 -11 -2 -40 6 -13 3 -16 -10
-11 -15 6 -15 4 -1 -31 19 -45 19 -48 5 -39 -17 10 -49 86 -49 117 0 30 39 77
63 77 8 0 19 -18 26 -41z m1417 -785 c-12 -11 -759 -534 -763 -534 -8 0 8 82
24 123 15 36 21 41 55 38 9 -1 35 3 58 9 34 9 45 18 59 51 15 33 53 66 222
190 112 83 203 154 202 159 -5 19 -346 530 -353 530 -4 0 -13 -14 -19 -31 -7
-20 -16 -29 -25 -26 -8 3 -32 11 -55 18 -23 7 -41 16 -41 20 0 5 25 61 55 126
l56 117 263 -394 c145 -217 263 -395 262 -396z m-961 749 c15 -70 17 -66 -23
-58 -20 4 -38 8 -39 9 -1 1 0 19 4 39 5 30 10 37 29 37 18 0 25 -7 29 -27z
m-559 -72 l24 -53 -25 16 c-36 24 -52 19 -26 -8 16 -17 19 -25 9 -28 -9 -3 -2
-14 20 -32 17 -15 32 -32 32 -38 0 -6 -15 3 -33 19 -18 16 -47 35 -65 42 -35
15 -46 37 -36 75 7 28 51 69 67 63 6 -2 21 -27 33 -56z m494 -16 c161 -26 324
-75 307 -91 -2 -2 -33 3 -67 12 -93 24 -162 16 -203 -24 -18 -17 -40 -45 -50
-62 -16 -27 -17 -31 -2 -36 25 -10 77 17 124 65 l45 44 55 -11 c31 -7 107 -29
170 -50 l113 -38 -34 -30 c-35 -31 -110 -79 -265 -169 -45 -27 -96 -61 -114
-77 -24 -22 -34 -26 -45 -18 -16 14 -34 5 -34 -17 0 -9 -6 -13 -15 -10 -19 8
-28 -8 -16 -30 7 -14 2 -25 -21 -48 -49 -49 -60 -82 -68 -197 -10 -146 -40
-192 -137 -213 l-32 -6 17 63 c15 54 21 64 42 66 14 2 31 9 38 14 15 13 16 60
1 75 -7 7 -4 20 10 43 23 39 20 50 -15 50 -25 0 -25 1 10 34 44 41 47 66 9 67
l-28 1 30 9 c32 9 75 43 75 59 0 5 10 12 23 16 25 7 57 33 57 46 0 4 -8 8 -17
9 -10 0 3 7 28 14 68 18 73 23 47 45 l-23 19 54 1 c52 0 56 2 103 53 50 53 81
101 72 110 -3 2 -28 -2 -55 -11 -37 -12 -55 -24 -66 -45 -20 -40 -26 -28 -9
21 17 48 12 56 -23 38 -38 -20 -61 -49 -76 -98 l-14 -43 0 36 c-1 20 -4 38 -7
41 -8 8 -94 -86 -94 -103 0 -8 -8 1 -16 19 -9 17 -19 32 -23 32 -3 -1 -17 -23
-30 -50 -18 -36 -22 -58 -18 -87 6 -37 6 -37 -5 -8 -12 33 -27 55 -38 55 -15
0 -38 -113 -29 -139 8 -22 5 -20 -21 12 -31 37 -52 41 -49 9 1 -10 1 -36 0
-59 -1 -50 -21 -58 -47 -18 -9 14 -20 23 -24 20 -14 -9 -49 58 -66 126 -52
203 85 419 296 465 72 16 61 16 170 -1z m-544 -101 c19 -9 37 -22 41 -28 4 -6
-5 -3 -20 7 -27 17 -53 15 -42 -4 4 -5 -5 -5 -20 1 -34 13 -45 13 -45 -1 0 -6
9 -13 20 -16 11 -3 20 -11 20 -19 0 -7 18 -23 40 -34 49 -25 53 -34 5 -14 -19
7 -48 14 -65 14 -46 0 -70 16 -70 47 0 59 64 81 136 47z m1073 -120 c-19 -24
-120 -93 -244 -168 -147 -90 -165 -108 -165 -165 0 -35 -3 -42 -12 -33 -7 7
-12 28 -12 48 0 47 34 78 179 166 61 37 142 89 180 117 71 51 98 63 74 35z
m-1135 -8 c-3 -8 -19 -18 -35 -21 -36 -8 -39 -35 -4 -35 40 0 30 -28 -19 -52
-55 -26 -76 -15 -76 41 0 58 27 80 97 81 33 0 41 -3 37 -14z m1293 -186 c66
-96 123 -180 126 -187 5 -7 -41 -46 -120 -104 -71 -51 -143 -104 -161 -117
l-33 -25 7 29 c4 16 7 35 7 44 0 22 17 40 38 40 10 0 26 11 34 24 15 22 14 28
-10 87 -41 97 -85 230 -85 254 0 12 7 30 15 41 8 10 15 29 15 41 0 17 39 60
45 50 1 -1 56 -81 122 -177z m-1337 41 c-5 -11 -15 -23 -20 -26 -17 -11 0 -26
17 -16 10 5 21 5 28 -2 9 -9 6 -16 -12 -30 -13 -10 -34 -40 -47 -65 l-24 -46
-21 34 c-11 19 -21 43 -21 53 0 34 30 77 68 96 46 25 45 25 32 2z m1126 -48
c9 -32 34 -104 56 -161 46 -119 45 -144 -4 -114 -18 11 -38 18 -45 15 -7 -3
-9 3 -6 16 4 15 1 21 -11 21 -17 0 -32 -42 -21 -60 4 -7 19 -9 36 -5 34 8 38
-7 13 -43 -17 -24 -69 -31 -77 -9 -3 8 -10 6 -21 -8 -26 -33 -20 -47 17 -40
l34 7 -2 -74 c-2 -90 -14 -115 -61 -124 -33 -6 -108 4 -146 21 -24 10 -25 -23
-2 -40 15 -10 15 -18 3 -66 -18 -75 -16 -249 5 -329 9 -36 31 -95 49 -133 22
-44 29 -67 20 -67 -15 0 -146 91 -299 208 -99 75 -305 192 -339 192 -11 0 -12
6 -6 23 6 16 19 24 47 29 47 7 60 -2 44 -32 -8 -16 -9 -25 -1 -33 7 -7 12 -5
17 6 4 11 18 17 38 17 49 0 81 38 73 87 l-6 37 19 -29 c11 -17 25 -38 32 -47
10 -14 10 -22 0 -38 -18 -29 -15 -42 11 -38 15 2 25 13 31 35 5 17 20 36 33
42 26 12 29 38 12 110 -5 24 -7 52 -4 62 6 18 9 17 36 -8 21 -20 29 -37 29
-61 0 -30 2 -32 20 -22 24 13 26 44 4 96 -10 24 -14 53 -11 78 3 24 0 54 -9
74 -8 19 -14 43 -14 54 0 17 4 16 30 -12 31 -33 62 -37 68 -7 3 12 -3 17 -22
17 -25 0 -26 3 -26 51 0 46 4 55 35 83 24 22 35 41 35 60 0 15 -4 25 -9 22 -5
-3 -11 1 -15 9 -7 18 8 27 59 36 22 4 71 16 109 28 38 11 72 19 74 17 2 -3
-24 -17 -57 -33 -78 -36 -84 -63 -13 -63 26 0 57 -7 69 -15 20 -14 22 -13 28
25 4 26 13 41 26 45 28 9 24 28 -5 21 -35 -9 -44 22 -10 34 14 6 23 14 20 19
-3 5 -41 -2 -83 -14 -43 -12 -80 -21 -82 -19 -2 2 -1 10 2 19 4 10 19 15 43
15 29 0 43 7 68 34 17 19 34 35 38 35 4 1 15 -25 24 -56z m-471 17 c3 -5 1
-10 -4 -10 -6 0 -11 5 -11 10 0 6 2 10 4 10 3 0 8 -4 11 -10z m-648 -107 c-21
-41 -28 -81 -17 -88 6 -3 15 4 20 17 9 19 10 14 6 -22 -3 -25 4 -127 15 -228
22 -193 22 -194 -16 -320 -13 -40 15 -24 35 21 29 66 34 140 17 262 -25 174
-30 235 -16 205 12 -25 12 -25 21 15 5 22 12 53 16 68 7 30 16 -157 17 -358 0
-133 -17 -187 -83 -257 -25 -26 -48 -48 -52 -48 -4 0 -1 18 6 41 25 72 27 175
5 384 -12 124 -17 213 -12 235 8 36 38 100 47 100 2 0 -2 -12 -9 -27z m500 -9
c-3 -3 -12 -4 -19 -1 -8 3 -5 6 6 6 11 1 17 -2 13 -5z m-137 -82 c0 -10 -3
-10 -14 0 -7 7 -11 19 -8 26 4 11 6 11 13 0 5 -7 9 -19 9 -26z m308 -24 c21
-21 13 -27 -15 -13 -59 31 -93 -25 -93 -152 -1 -120 -22 -178 -77 -217 -43
-30 -154 -52 -139 -27 4 6 21 11 37 11 34 0 96 29 121 56 24 28 38 90 38 169
0 83 12 133 40 163 23 24 69 29 88 10z m-237 -18 c-13 -11 -28 -20 -35 -20 -6
0 -3 7 6 14 10 7 15 16 11 19 -3 4 5 7 18 7 l24 -1 -24 -19z m306 -32 c-3 -8
-6 -5 -6 6 -1 11 2 17 5 13 3 -3 4 -12 1 -19z m-102 -156 c-8 -9 -22 60 -17
80 5 18 8 12 13 -27 3 -27 5 -51 4 -53z m-382 57 c-7 -7 -19 -9 -29 -5 -16 6
-16 8 2 21 22 16 45 2 27 -16z m433 1 c1 -16 -3 -27 -7 -24 -14 8 -9 54 5 54
1 0 1 -13 2 -30z m434 -41 c0 -6 -4 -7 -10 -4 -5 3 -10 11 -10 16 0 6 5 7 10
4 6 -3 10 -11 10 -16z m-889 -49 c-17 -66 -38 -67 -32 -2 3 40 16 62 36 62 9
0 8 -15 -4 -60z m159 40 c0 -19 -11 -26 -23 -14 -8 8 3 34 14 34 5 0 9 -9 9
-20z m239 -60 c0 -30 -12 -11 -23 35 -7 29 -7 29 8 10 8 -11 15 -31 15 -45z
m-292 -17 c-3 -10 -5 -4 -5 12 0 17 2 24 5 18 2 -7 2 -21 0 -30z m363 -5 c0
-5 -4 -8 -10 -8 -5 0 -10 10 -10 23 0 18 2 19 10 7 5 -8 10 -18 10 -22z m-120
-93 c0 -8 -7 -15 -15 -15 -16 0 -20 12 -8 23 11 12 23 8 23 -8z m40 -85 c13
-24 2 -50 -11 -29 -9 15 -12 49 -4 49 2 0 9 -9 15 -20z m-132 -35 c-3 -3 -9 2
-12 12 -6 14 -5 15 5 6 7 -7 10 -15 7 -18z m-58 -5 c0 -5 -5 -10 -11 -10 -5 0
-7 5 -4 10 3 6 8 10 11 10 2 0 4 -4 4 -10z m84 -274 l59 -22 -114 -81 c-63
-44 -115 -80 -116 -79 -7 6 93 206 102 205 6 0 37 -10 69 -23z"/>
<path d="M1943 2496 l-30 -53 43 -26 c29 -17 46 -22 50 -15 4 6 1 14 -7 19
-36 22 -43 28 -36 35 4 4 18 2 32 -4 20 -9 25 -9 25 2 0 8 -7 16 -15 20 -8 3
-15 12 -15 21 0 14 3 14 26 -1 17 -11 28 -14 35 -7 10 10 -6 24 -57 51 -18 10
-24 5 -51 -42z"/>
<path d="M654 2461 c-18 -11 -35 -24 -38 -30 -7 -10 48 -101 61 -101 3 0 21
11 40 26 42 32 45 73 7 103 -32 25 -32 25 -70 2z m56 -42 c11 -20 -1 -49 -19
-49 -11 0 -41 57 -34 64 13 13 43 5 53 -15z"/>
<path d="M2085 2414 c-29 -35 -35 -48 -26 -57 10 -9 18 -5 38 18 l26 30 -7
-47 c-6 -41 -4 -48 13 -57 17 -10 25 -5 55 35 28 37 34 50 25 61 -10 11 -16 7
-36 -19 l-25 -33 4 46 c4 37 2 48 -13 57 -15 9 -23 4 -54 -34z"/>
<path d="M532 2368 c-7 -10 0 -24 29 -57 33 -36 41 -41 54 -31 13 11 10 18
-22 54 -44 49 -47 50 -61 34z"/>
<path d="M2237 2299 c-33 -25 -35 -59 -4 -93 32 -35 59 -40 90 -15 33 25 35
59 5 93 -33 35 -60 40 -91 15z m72 -36 c21 -38 -31 -72 -58 -39 -9 11 -10 20
-1 35 13 25 45 27 59 4z"/>
<path d="M442 2288 c-16 -16 -15 -55 1 -61 7 -3 25 -3 40 0 31 6 34 -3 12 -27
-14 -16 -14 -18 -1 -23 18 -7 58 39 54 62 -2 11 -17 17 -47 19 -42 3 -43 4
-25 23 16 18 16 19 -2 19 -11 0 -25 -5 -32 -12z"/>
<path d="M349 2173 c-42 -51 -43 -49 6 -88 37 -31 48 -35 60 -25 13 11 10 17
-25 43 -30 24 -37 34 -29 44 14 16 30 7 27 -14 -4 -21 50 -37 69 -22 18 15 7
29 -23 29 -14 0 -23 4 -20 9 22 34 -39 56 -65 24z"/>
<path d="M2387 2163 c-4 -3 -7 -19 -7 -34 0 -36 -16 -46 -30 -19 -6 11 -15 18
-20 15 -6 -4 -4 -18 5 -36 26 -50 75 -36 75 22 0 23 16 25 28 3 7 -12 11 -13
16 -5 18 28 -44 78 -67 54z"/>
<path d="M262 2047 c-5 -6 -17 -26 -25 -43 l-16 -31 53 -30 53 -30 24 43 c13
24 20 47 15 51 -7 8 -31 -17 -39 -41 -2 -6 -8 -8 -12 -4 -5 5 -3 19 3 32 8 19
8 25 -3 30 -8 3 -17 -3 -20 -15 -4 -10 -13 -19 -21 -19 -13 0 -12 4 1 29 15
30 6 51 -13 28z"/>
<path d="M2443 1963 c-29 -6 -19 -33 12 -33 27 0 43 -34 26 -54 -10 -12 -6
-46 5 -46 6 0 67 68 77 87 5 7 5 22 2 33 -5 17 -15 20 -53 19 -26 -1 -57 -4
-69 -6z m87 -38 c-7 -9 -15 -13 -17 -11 -7 7 7 26 19 26 6 0 6 -6 -2 -15z"/>
<path d="M186 1904 c-5 -12 3 -28 26 -51 l32 -33 -46 0 c-32 0 -48 -5 -52 -15
-4 -12 6 -15 63 -15 92 0 98 19 31 85 -40 39 -48 44 -54 29z"/>
<path d="M2555 1809 c-60 -25 -57 -22 -50 -42 6 -13 13 -13 65 4 48 17 57 23
53 40 -6 23 -5 23 -68 -2z"/>
<path d="M125 1732 c-16 -16 1 -33 47 -47 65 -19 68 -19 68 3 0 14 -14 23 -55
34 -30 8 -57 13 -60 10z"/>
<path d="M2587 1712 c-72 -18 -71 -38 2 -34 40 2 51 -1 51 -13 0 -17 -26 -21
-32 -3 -6 17 -58 -21 -58 -43 0 -22 8 -23 34 -4 14 11 22 11 36 3 30 -19 52 7
44 51 -10 58 -13 59 -77 43z"/>
<path d="M95 1612 c-8 -21 -7 -22 24 -22 43 0 45 -14 6 -29 -30 -11 -55 -44
-42 -57 2 -3 31 -6 62 -7 67 -2 86 17 28 28 l-38 7 37 15 c33 13 58 46 45 59
-3 3 -30 9 -61 13 -43 6 -56 5 -61 -7z"/>
<path d="M2583 1543 c-8 -3 -13 -24 -13 -54 0 -38 3 -49 16 -49 13 0 15 7 10
35 -6 28 -4 35 9 35 9 0 15 -9 15 -25 0 -14 6 -25 14 -25 9 0 12 8 8 26 -4 20
-1 25 9 22 8 -2 15 -17 17 -31 6 -47 22 -29 22 23 l0 50 -47 -1 c-27 0 -54 -3
-60 -6z"/>
<path d="M70 1410 c0 -17 7 -20 50 -20 43 0 50 -3 50 -19 0 -16 -9 -21 -45
-27 -32 -4 -45 -11 -45 -23 0 -13 9 -15 48 -12 57 4 72 15 72 53 0 55 -15 68
-75 68 -48 0 -55 -2 -55 -20z"/>
<path d="M2574 1375 c-4 -8 -3 -26 0 -40 8 -31 50 -35 66 -5 14 26 30 26 30
-1 0 -12 5 -19 13 -16 18 6 15 58 -5 71 -14 8 -23 5 -48 -19 l-30 -29 0 27 c0
29 -17 37 -26 12z"/>
<path d="M152 1131 c-18 -11 -4 -74 15 -67 8 4 16 6 17 6 6 0 -7 61 -13 64 -4
3 -12 1 -19 -3z"/>
<path d="M2596 1118 c-9 -36 -7 -48 8 -48 15 0 26 21 26 51 0 27 -26 24 -34
-3z"/>
<path d="M218 887 c-51 -24 -52 -25 -39 -46 7 -10 13 -11 30 -1 20 10 23 9 28
-9 3 -12 12 -21 19 -21 17 0 17 5 4 31 -8 15 -7 19 4 19 8 0 18 -9 21 -20 6
-20 16 -25 28 -14 7 8 -30 84 -41 83 -4 0 -28 -11 -54 -22z"/>
<path d="M2472 866 c-8 -17 -1 -31 34 -74 36 -44 45 -50 51 -37 3 10 1 26 -6
37 -16 25 3 61 28 53 12 -4 21 0 25 11 4 9 5 18 4 19 -2 2 -31 5 -65 7 -55 4
-63 2 -71 -16z m58 -26 c0 -5 -4 -10 -9 -10 -6 0 -13 5 -16 10 -3 6 1 10 9 10
9 0 16 -4 16 -10z"/>
<path d="M253 763 c-37 -5 -36 -33 2 -33 27 0 37 -19 29 -59 -10 -47 10 -43
50 9 27 35 36 55 31 70 -7 21 -29 23 -112 13z m77 -38 c-7 -8 -14 -15 -15 -15
-2 0 -5 7 -9 15 -4 10 1 15 16 15 17 0 18 -2 8 -15z"/>
<path d="M2416 763 c-15 -15 -3 -33 40 -57 46 -25 64 -26 64 -3 0 14 -94 69
-104 60z"/>
<path d="M2346 657 c-14 -19 -26 -37 -26 -40 0 -3 20 -20 45 -37 37 -25 49
-29 60 -20 12 10 8 17 -26 42 -33 24 -38 32 -29 43 16 19 33 9 25 -15 -8 -25
54 -35 73 -12 11 15 9 17 -17 20 -22 2 -31 9 -33 25 -5 36 -42 33 -72 -6z"/>
<path d="M375 648 c-27 -15 -35 -28 -35 -59 0 -25 41 -75 52 -63 4 3 -1 18
-10 34 -14 23 -14 31 -3 44 18 22 36 20 60 -5 11 -12 21 -16 25 -10 9 14 -14
48 -41 60 -28 13 -23 13 -48 -1z"/>
<path d="M2259 554 l-33 -34 42 -42 42 -42 34 33 c20 19 33 38 30 43 -4 5 -17
0 -29 -12 -29 -27 -55 -17 -29 11 22 25 10 37 -15 15 -11 -10 -21 -13 -25 -7
-4 5 -2 12 4 16 16 10 31 43 22 49 -5 3 -24 -10 -43 -30z"/>
<path d="M462 527 c-39 -40 -40 -56 -4 -90 37 -35 51 -34 92 8 26 27 31 38 22
47 -9 9 -18 6 -40 -15 -54 -52 -88 -20 -36 34 14 15 23 32 20 38 -11 17 -20
13 -54 -22z"/>
<path d="M2165 470 c-3 -5 13 -30 36 -55 32 -35 45 -43 55 -34 11 9 7 19 -22
55 -36 43 -57 54 -69 34z"/>
<path d="M580 404 l-34 -46 34 -28 c22 -18 39 -25 45 -19 6 6 1 15 -13 25
l-23 15 30 38 c23 29 27 41 19 49 -17 17 -20 16 -58 -34z"/>
<path d="M2111 421 c-11 -7 -10 -14 8 -40 25 -35 22 -37 -20 -15 -30 15 -69
11 -69 -7 0 -6 14 -30 30 -54 20 -29 35 -42 45 -39 19 8 19 10 -5 44 l-19 27
44 -16 c75 -27 84 6 22 82 -16 19 -26 24 -36 18z"/>
<path d="M686 384 c-3 -7 2 -17 11 -22 13 -8 13 -14 -8 -51 -20 -35 -22 -43
-9 -51 10 -6 20 1 39 28 13 20 26 39 27 41 2 2 10 -1 17 -7 13 -11 27 -7 27 8
0 4 -22 21 -49 38 -38 23 -51 27 -55 16z"/>
<path d="M1943 317 l-41 -22 25 -50 c14 -27 27 -52 29 -54 8 -9 84 33 84 46 0
16 -5 16 -32 2 -13 -7 -24 -7 -30 -1 -7 7 -3 12 11 17 12 3 21 13 21 22 0 9
-6 13 -15 9 -8 -3 -22 -9 -30 -12 -26 -11 -16 16 10 28 14 6 25 15 25 19 0 17
-17 16 -57 -4z"/>
<path d="M788 262 c-41 -31 -45 -38 -31 -46 10 -5 22 -5 34 2 21 13 46 -3 51
-33 2 -11 11 -21 20 -23 13 -3 17 8 20 60 5 91 -17 100 -94 40z m62 -12 c0 -5
-4 -10 -10 -10 -5 0 -10 5 -10 10 0 6 5 10 10 10 6 0 10 -4 10 -10z"/>
<path d="M1813 255 c-41 -17 -56 -46 -43 -79 15 -41 52 -53 99 -31 37 16 39
19 29 46 -6 18 -17 29 -28 29 -27 0 -35 -19 -14 -34 17 -13 16 -14 -6 -21 -17
-5 -27 -3 -37 11 -7 10 -13 21 -13 25 0 15 32 39 52 39 11 0 18 5 16 12 -6 18
-20 19 -55 3z"/>
<path d="M932 200 l-20 -59 30 -10 c65 -23 108 -2 108 51 0 29 -22 51 -67 66
l-32 10 -19 -58z m76 -13 c3 -28 -13 -42 -41 -35 -12 3 -12 8 0 36 16 39 37
38 41 -1z"/>
<path d="M1688 214 c-4 -3 -2 -19 3 -37 5 -17 7 -32 6 -34 -2 -1 -16 11 -32
27 -26 28 -54 38 -67 25 -5 -5 17 -113 24 -120 2 -2 9 0 17 4 10 6 10 17 2 46
l-10 38 37 -35 c42 -39 77 -41 69 -5 -3 12 -9 39 -12 60 -7 33 -22 47 -37 31z"/>
<path d="M1146 152 c-11 -83 -12 -82 43 -82 40 0 53 4 65 22 34 48 10 87 -56
98 l-46 6 -6 -44z m82 -16 c4 -20 -15 -46 -34 -46 -10 0 -14 13 -14 40 0 37 2
39 23 31 12 -5 23 -16 25 -25z"/>
<path d="M1516 182 c-10 -17 7 -122 20 -122 21 0 26 18 19 75 -5 36 -12 55
-21 55 -7 0 -15 -4 -18 -8z"/>
<path d="M1310 115 l0 -65 50 0 c38 0 50 4 50 15 0 10 -10 15 -30 15 -16 0
-30 5 -30 10 0 6 11 10 25 10 16 0 25 6 25 15 0 9 -9 15 -25 15 -14 0 -25 5
-25 10 0 6 14 10 30 10 20 0 30 5 30 15 0 11 -12 15 -50 15 l-50 0 0 -65z"/>
</g>
</svg>
